# xmcd
#
# Track frame offsets: 
#        150
#        21668
#        43704
#        64687
#        89622
#        116857
#        133925
#        158532
#        175941
#        197147
#        212067
#
# Disc length: 3147 seconds
#
# Revision: 2
# Processed by: cddbd v1.4PL0 Copyright (c) Steve Scherf et al.
# Submitted via: ExactAudioCopy v0.95a3
#
DISCID=a40c490b
DTITLE=Fernando Noronha and Black Soul - Changes
DYEAR=2003
DGENRE=Bluesrock
TTITLE0=Nothing But Her Love
TTITLE1=The Hound
TTITLE2=Driftin'
TTITLE3=White Trash
TTITLE4=Changes
TTITLE5=Pig Foot
TTITLE6=Blues For Jimmy King
TTITLE7=Stay Away From Me
TTITLE8=Love Is Just A Gamble
TTITLE9=On The Road
TTITLE10=House Of Blues
EXTD=
EXTT0=
EXTT1=
EXTT2=
EXTT3=
EXTT4=
EXTT5=
EXTT6=
EXTT7=
EXTT8=
EXTT9=
EXTT10=
PLAYORDER=
